<svg width="448" height="448" viewBox="0 0 448 448" fill="none" xmlns="http://www.w3.org/2000/svg">
<path d="M152 384H127.987L154.573 303.218H292.8L319.386 384H296C287.163 384 280 391.163 280 400V432C280 440.837 287.163 448 296 448H432C440.837 448 448 440.837 448 432V400C448 391.163 440.837 384 432 384H405.261L275.495 10.746C274.404 7.60717 272.362 4.88599 269.654 2.9603C266.946 1.0346 263.705 -5.00564e-05 260.382 1.81634e-09H187.616C184.293 -5.00564e-05 181.052 1.0346 178.344 2.9603C175.636 4.88599 173.594 7.60717 172.503 10.746L42.739 384H16C7.163 384 0 391.163 0 400V432C0 440.837 7.163 448 16 448H152C160.837 448 168 440.837 168 432V400C168 391.163 160.837 384 152 384ZM216.353 112.222C220.701 97.006 222.963 84.066 223.939 77.578C224.778 84.099 226.878 97.054 231.666 112.284L273.001 236.29H174.382L216.353 112.222Z" fill="black"/>
</svg>
