<svg width="150" height="150" viewBox="0 0 150 150" fill="none" xmlns="http://www.w3.org/2000/svg">
<path d="M75 150C116.421 150 150 116.421 150 75C150 33.5786 116.421 0 75 0C33.5786 0 0 33.5786 0 75C0 116.421 33.5786 150 75 150Z" fill="#F7E600"/>
<path d="M74.6868 104.753C99.24 104.753 119.144 88.8307 119.144 69.1897C119.144 49.5487 99.24 33.6265 74.6868 33.6265C50.1337 33.6265 30.2295 49.5487 30.2295 69.1897C30.2295 88.8307 50.1337 104.753 74.6868 104.753Z" fill="#964B00"/>
<path d="M47.6153 121.564L57.5456 65.6344L92.3365 86.5388L47.6153 121.564Z" fill="#964B00"/>
</svg>
